<svg xmlns="http://www.w3.org/2000/svg" xmlns:xlink="http://www.w3.org/1999/xlink"
  viewBox="0 0 624.53515625 624.53515625" fill="none">
  <path fill-rule="evenodd" style="fill:#00B047" opacity="1"
    d="M297.953 624.535C132.154 617.032 0 480.102 0 312.243C0 144.383 132.154 7.50315 297.953 0L297.953 76.8174C189.854 83.3946 100.153 162.893 80.5212 269.518C136.337 207.514 214.651 170.5 297.941 166.756L297.941 243.573C46.1696 256.161 46.1696 535.117 297.941 547.718L297.953 624.535ZM312.298 267.707C336.85 267.707 356.783 287.663 356.783 312.243C356.783 336.822 336.85 356.778 312.298 356.778C287.747 356.778 267.814 336.822 267.814 312.243C267.841 287.658 287.741 267.735 312.298 267.707ZM326.631 0C492.443 7.50315 624.535 144.433 624.535 312.243C624.535 480.053 492.443 617.032 326.631 624.535L326.631 547.718C435.731 541.157 524.837 460.297 544.063 354.955C488.265 416.997 409.938 454.038 326.631 457.779L326.631 380.887C578.415 368.287 578.415 89.4425 326.631 76.7926L326.631 0Z">
  </path>
</svg>